<svg width="128" height="128" viewBox="0 0 128 128" fill="none" xmlns="http://www.w3.org/2000/svg">
<g filter="url(#filter0_d)">
<path fill-rule="evenodd" clip-rule="evenodd" d="M121 60C121 91.4802 95.4802 117 64 117C32.5198 117 7 91.4802 7 60C7 28.5198 32.5198 3 64 3C95.4802 3 121 28.5198 121 60ZM124 60C124 93.1371 97.1371 120 64 120C30.8629 120 4 93.1371 4 60C4 26.8629 30.8629 0 64 0C97.1371 0 124 26.8629 124 60ZM61.5502 76.888L90.7676 48.888L85.2324 43.112L58.4277 68.7999L43.3496 57.8561L38.6504 64.3305L56.433 77.2372L59.1375 79.2001L61.5502 76.888Z" fill="black"/>
</g>
<defs>
<filter id="filter0_d" x="0" y="0" width="128" height="128" filterUnits="userSpaceOnUse" color-interpolation-filters="sRGB">
<feFlood flood-opacity="0" result="BackgroundImageFix"/>
<feColorMatrix in="SourceAlpha" type="matrix" values="0 0 0 0 0 0 0 0 0 0 0 0 0 0 0 0 0 0 127 0"/>
<feOffset dy="4"/>
<feGaussianBlur stdDeviation="2"/>
<feColorMatrix type="matrix" values="0 0 0 0 0 0 0 0 0 0 0 0 0 0 0 0 0 0 0.25 0"/>
<feBlend mode="normal" in2="BackgroundImageFix" result="effect1_dropShadow"/>
<feBlend mode="normal" in="SourceGraphic" in2="effect1_dropShadow" result="shape"/>
</filter>
</defs>
</svg>
